<?xml version="1.0" encoding="utf-8"?>
<!-- Generator: Adobe Illustrator 18.1.1, SVG Export Plug-In . SVG Version: 6.00 Build 0)  -->
<!DOCTYPE svg PUBLIC "-//W3C//DTD SVG 1.1//EN" "http://www.w3.org/Graphics/SVG/1.1/DTD/svg11.dtd">
<svg version="1.1" id="レイヤー_1" xmlns="http://www.w3.org/2000/svg" xmlns:xlink="http://www.w3.org/1999/xlink" x="0px"
	 y="0px" viewBox="0 0 500 300" enable-background="new 0 0 500 300" xml:space="preserve">
<g>
	<g>
		<path fill="#F5CE32" d="M117.9,94.2c-3.5,0-6.3,2.8-6.3,6.3c0,3.5,2.8,6.3,6.3,6.3c3.5,0,6.3-2.8,6.3-6.3
			C124.1,97,121.3,94.2,117.9,94.2z"/>
		<path fill="#F5CE32" d="M164.5,94.2c-3.5,0-6.3,2.8-6.3,6.3c0,3.5,2.8,6.3,6.3,6.3s6.3-2.8,6.3-6.3
			C170.7,97,167.9,94.2,164.5,94.2z"/>
		<path fill="#F5CE32" d="M242.6,68.8c-2.5-5.9-6.7-10.9-11.9-14.5c-5.2-3.5-11.6-5.6-18.4-5.6c-4.5,0-8.9,0.9-12.8,2.6
			c-1.3,0.5-2.5,1.2-3.7,1.9l-1.7-4.2c-3.1-7.7-10.6-12.8-18.9-12.8h-34h-34c-8.3,0-15.8,5.1-18.9,12.8l-1.7,4.2
			C81.7,50.4,76,48.8,70,48.8c-4.5,0-8.9,0.9-12.8,2.6c-5.9,2.5-10.9,6.7-14.5,11.9c-3.5,5.2-5.6,11.6-5.6,18.4
			c0,4.5,0.9,8.9,2.6,12.8c2.5,5.9,6.7,10.9,11.9,14.5c5.1,3.4,11.2,5.5,17.7,5.6l20.4,28.1v17.9c0,19.8,16.1,35.9,35.9,35.9h15.5
			h15.5c19.8,0,35.9-16.1,35.9-35.9v-17.9l20.4-28.1c4.3-0.1,8.4-1,12.2-2.6c5.9-2.5,10.9-6.7,14.5-11.9c3.5-5.2,5.6-11.6,5.6-18.4
			C245.2,77.1,244.2,72.8,242.6,68.8z M69.7,95.4c-1.8,0-3.5-0.4-5-1.1c-2.5-1-4.6-2.8-6.1-5c-1.5-2.2-2.3-4.8-2.3-7.7
			c0-1.9,0.4-3.7,1.1-5.3c1-2.5,2.8-4.6,5-6.1c2.2-1.5,4.8-2.3,7.7-2.3c1.9,0,3.7,0.4,5.3,1.1c1.4,0.6,2.7,1.5,3.9,2.5L69.7,95.4z
			 M147.7,181.7h-13c-11.6,0-21.1-9.4-21.1-21.1c0-0.2,0-0.5,0-0.7h55.1c0,0.2,0,0.5,0,0.7C168.7,172.3,159.3,181.7,147.7,181.7z
			 M171,125.3c1.2,8.9,6.2,21.4,6.6,25.9l-0.6,0.3h-71.7l-0.6-0.3c0.4-4.5,5.4-17,6.6-25.9c-13.2-2.6-23.1-14.2-23.1-28.1
			c0-15.8,12.8-28.6,28.6-28.6c10.2,0,19.2,5.4,24.3,13.5c5.1-8.1,14-13.5,24.3-13.5c15.8,0,28.6,12.8,28.6,28.6
			C194.1,111.1,184.1,122.7,171,125.3z M225,87c-1,2.5-2.8,4.6-5,6.1c-2.1,1.4-4.6,2.3-7.3,2.3l-9.6-23.9c0.5-0.4,1-0.8,1.5-1.2
			c2.2-1.5,4.8-2.3,7.7-2.3c1.9,0,3.7,0.4,5.3,1.1c2.5,1,4.6,2.8,6.1,5c1.5,2.2,2.3,4.8,2.3,7.7C226,83.6,225.6,85.3,225,87z"/>
		<path fill="#F5CE32" d="M132.8,135.4c-1.6,0-3,1.3-3,3c0,1.7,1.3,3,3,3c1.6,0,3-1.3,3-3C135.8,136.8,134.4,135.4,132.8,135.4z"/>
		<path fill="#F5CE32" d="M149.5,135.4c-1.6,0-3,1.3-3,3c0,1.7,1.3,3,3,3c1.7,0,3-1.3,3-3C152.5,136.8,151.2,135.4,149.5,135.4z"/>
	</g>
</g>
<g>
	<g>
		<path fill="#F5CE32" d="M349,101.5c4.6,0,8.2-3.7,8.2-8.2S353.5,85,349,85c-4.6,0-8.2,3.7-8.2,8.2S344.4,101.5,349,101.5z"/>
		<path fill="#F5CE32" d="M385.4,101.5c4.6,0,8.2-3.7,8.2-8.2S390,85,385.4,85c-4.6,0-8.2,3.7-8.2,8.2S380.9,101.5,385.4,101.5z"/>
		<path fill="#F5CE32" d="M455.3,150.7l-19.1-19.1c-1.3-1.3-3.1-1.8-4.9-1.4l-17.2,4c0-2.7-0.5-5.2-1.4-7.5c2.5-0.8,4.8-1.6,6.9-2.6
			c6.3-2.9,11-7,14-12c2.6-4.4,3.8-9.3,4.1-14.5c14-10.5,13.9-35.2-2.9-48.7c-12.2-9.8-23.9-5.2-26.9-2.2c-0.8,0.8-1.5,4.3,5.6,11.3
			c16.5,16.1,5.2,21.7,5.2,21.7s-10-8.7-17.3-18.2c-1.2-1.5-5,2.3-5.2,9.1c-0.4,15.8,13.7,33.6,30.4,31.5c-0.1,0.5-0.3,1-0.4,1.4
			c-1.2,3.4-3.1,6.2-6.7,8.7c-3,2.1-7.3,4-13,5.4c-8.6-8.1-23.4-12.5-39.1-12.5c-15.7,0-30.5,4.5-39.1,12.5c-3.5-0.9-6.4-1.9-8.8-3
			c-4.9-2.3-7.6-4.9-9.4-7.9c-0.8-1.4-1.4-2.9-1.9-4.6c16.7,2.1,30.8-15.7,30.4-31.5c-0.2-6.8-4-10.7-5.2-9.1
			c-7.4,9.5-17.4,18.2-17.4,18.2s-11.3-5.6,5.2-21.7c7.2-7,6.4-10.5,5.6-11.3c-3-3-14.7-7.6-26.9,2.2c-16.9,13.5-16.9,38.3-2.9,48.7
			c0.2,3.2,0.6,6.3,1.6,9.2c1.8,5.4,5.4,10.3,10.6,13.9c3.5,2.4,7.7,4.4,12.7,5.9c-0.9,2.3-1.4,4.9-1.4,7.5l-17.2-4
			c-1.7-0.4-3.6,0.1-4.9,1.4l-19.1,19.1c-2,2-2,5.3,0,7.4c2,2,5.3,2,7.4,0l17-17l18.2,4.2c0.3,1.6,0.6,3.1,1,4.5l-15.1,1.3
			c-1.9,0.2-3.5,1.3-4.3,3.1l-10.4,23.4c-1.2,2.6,0,5.7,2.6,6.9c2.6,1.2,5.7,0,6.9-2.6l9.2-20.6l14.8-1.3c0.8,1.7,1.7,3.2,2.7,4.5
			l-7.9,3.3c-1.8,0.7-3,2.3-3.2,4.2l-2.1,18.6c-0.3,2.9,1.7,5.4,4.6,5.8c2.9,0.3,5.4-1.7,5.8-4.6l1.8-15.6l9.8-4.1
			c7.5,3.9,29.5,3.1,29.5,3.1s22,0.8,29.5-3.1l9.8,4.1l1.8,15.6c0.3,2.9,2.9,4.9,5.8,4.6c2.9-0.3,4.9-2.9,4.6-5.8l-2.1-18.6
			c-0.2-1.9-1.4-3.5-3.2-4.2l-7.9-3.3c1-1.3,1.9-2.8,2.7-4.5l14.8,1.3l9.2,20.6c1.2,2.6,4.3,3.8,6.9,2.6c2.6-1.2,3.8-4.2,2.6-6.9
			l-10.4-23.4c-0.8-1.7-2.4-2.9-4.3-3.1l-15.1-1.3c0.4-1.4,0.7-2.9,1-4.5l18.2-4.2l17,17c2,2,5.3,2,7.4,0
			C457.3,156.1,457.3,152.8,455.3,150.7z"/>
	</g>
</g>
<text transform="matrix(1 0 0 1 34.7943 265.7689)" fill="#F5CE32" font-family="'hkkaikk'" font-size="72">サルカニ合戦</text>
</svg>
